<svg xmlns="http://www.w3.org/2000/svg" viewBox="0 0 32 32">
  <defs>
    <linearGradient id="bg" x1="0" y1="0" x2="32" y2="32" gradientUnits="userSpaceOnUse">
      <stop offset="0%" stop-color="#0F172A"/>
      <stop offset="100%" stop-color="#1E293B"/>
    </linearGradient>
    <linearGradient id="accent" x1="0" y1="0" x2="32" y2="32" gradientUnits="userSpaceOnUse">
      <stop offset="0%" stop-color="#6366F1"/>
      <stop offset="100%" stop-color="#A78BFA"/>
    </linearGradient>
    <linearGradient id="bolt" x1="0" y1="0" x2="0" y2="32" gradientUnits="userSpaceOnUse">
      <stop offset="0%" stop-color="#FBBF24"/>
      <stop offset="100%" stop-color="#F59E0B"/>
    </linearGradient>
  </defs>
  <rect width="32" height="32" rx="7" fill="url(#bg)"/>
  <path d="M10.5 8 Q8 8 8 10.5 L8 13.5 Q8 16 5.5 16 Q8 16 8 18.5 L8 21.5 Q8 24 10.5 24" stroke="url(#accent)" stroke-width="1.8" stroke-linecap="round" fill="none"/>
  <path d="M21.5 8 Q24 8 24 10.5 L24 13.5 Q24 16 26.5 16 Q24 16 24 18.5 L24 21.5 Q24 24 21.5 24" stroke="url(#accent)" stroke-width="1.8" stroke-linecap="round" fill="none"/>
  <path d="M17 10.5 L14 16.5 L16 16.5 L15 21.5 L18 15.5 L16 15.5 Z" fill="url(#bolt)"/>
</svg>
