<svg xmlns="http://www.w3.org/2000/svg" viewBox="0 0 32 32">
  <defs>
    <linearGradient id="bg" x1="0" y1="0" x2="32" y2="32" gradientUnits="userSpaceOnUse">
      <stop offset="0%" stop-color="#0F172A"/>
      <stop offset="100%" stop-color="#0B1222"/>
    </linearGradient>
    <linearGradient id="brand" x1="4" y1="6" x2="28" y2="26" gradientUnits="userSpaceOnUse">
      <stop offset="0%" stop-color="#34D8F0"/>
      <stop offset="50%" stop-color="#06B6D4"/>
      <stop offset="100%" stop-color="#0891B2"/>
    </linearGradient>
    <linearGradient id="accent" x1="14" y1="13" x2="18" y2="19" gradientUnits="userSpaceOnUse">
      <stop offset="0%" stop-color="#A5F3FC"/>
      <stop offset="100%" stop-color="#22D3EE"/>
    </linearGradient>
  </defs>
  <rect width="32" height="32" rx="7" fill="url(#bg)"/>
  <!-- Left brace -->
  <path d="M12 7 C9.5 7 9 9 9 10.5 L9 14 C9 15.5 7.5 16 7 16 C7.5 16 9 16.5 9 18 L9 21.5 C9 23 9.5 25 12 25"
    stroke="url(#brand)" stroke-width="1.8" stroke-linecap="round" fill="none"/>
  <!-- Right brace -->
  <path d="M20 7 C22.5 7 23 9 23 10.5 L23 14 C23 15.5 24.5 16 25 16 C24.5 16 23 16.5 23 18 L23 21.5 C23 23 22.5 25 20 25"
    stroke="url(#brand)" stroke-width="1.8" stroke-linecap="round" fill="none"/>
  <!-- Toggle track -->
  <rect x="12.5" y="13.5" width="7" height="5" rx="2.5" fill="none" stroke="url(#accent)" stroke-width="1.2"/>
  <!-- Toggle knob -->
  <circle cx="17" cy="16" r="1.6" fill="url(#accent)"/>
</svg>
