<svg xmlns="http://www.w3.org/2000/svg" viewBox="0 0 32 32">
  <defs>
    <linearGradient id="grad" x1="0%" y1="0%" x2="100%" y2="100%">
      <stop offset="0%" style="stop-color:#8b5cf6"/>
      <stop offset="100%" style="stop-color:#06b6d4"/>
    </linearGradient>
  </defs>
  <circle cx="16" cy="16" r="15" fill="#0f172a" stroke="url(#grad)" stroke-width="1.5"/>
  <path d="M16 8c-3 0-5.5 2-5.5 5 0 1.5.5 2.5 1.5 3.5 0 0-1 1.5-1 3.5 0 1.5.5 2.5 1.5 3 .5.3 1.5.5 3.5.5s3-.2 3.5-.5c1-.5 1.5-1.5 1.5-3 0-2-1-3.5-1-3.5 1-1 1.5-2 1.5-3.5 0-3-2.5-5-5.5-5z" fill="url(#grad)" opacity="0.9"/>
  <ellipse cx="14" cy="13" rx="1.2" ry="1.5" fill="#0f172a"/>
  <ellipse cx="18" cy="13" rx="1.2" ry="1.5" fill="#0f172a"/>
</svg>
