<svg xmlns="http://www.w3.org/2000/svg" viewBox="0 0 24 24" fill="none" stroke="currentColor" stroke-width="1.8" stroke-linecap="round" stroke-linejoin="round">
  <!-- Left curly brace { -->
  <path d="M9 3 C5.5 3 4.5 5 4.5 7.5 L4.5 10 C4.5 11.2 3 12 2 12 C3 12 4.5 12.8 4.5 14 L4.5 16.5 C4.5 19 5.5 21 9 21"/>
  <!-- Right curly brace } -->
  <path d="M15 3 C18.5 3 19.5 5 19.5 7.5 L19.5 10 C19.5 11.2 21 12 22 12 C21 12 19.5 12.8 19.5 14 L19.5 16.5 C19.5 19 18.5 21 15 21"/>
  <!-- Toggle track -->
  <rect x="8" y="9.5" width="8" height="5" rx="2.5" fill="none" stroke-width="1.6"/>
  <!-- Toggle knob (on position) -->
  <circle cx="13.5" cy="12" r="1.8" fill="currentColor" stroke="none"/>
</svg>
