<svg xmlns="http://www.w3.org/2000/svg" viewBox="0 0 24 24" fill="none">
  <!-- Specter Light - Phantom portal/eye design -->
  
  <!-- Outer ring -->
  <circle cx="12" cy="12" r="9" stroke="#0891B2" stroke-width="2" fill="none"/>
  
  <!-- Inner phantom shape -->
  <path 
    d="M12 6C9.24 6 7 8.24 7 11v5.5c0 .28.22.5.5.5s.5-.22.5-.5v-.5l1 1 1-1 1 1 1-1 1 1 1-1 1 1v.5c0 .28.22.5.5.5s.5-.22.5-.5V11c0-2.76-2.24-5-5-5z"
    fill="#0891B2"
  />
  
  <!-- Eyes -->
  <circle cx="10" cy="11" r="1" fill="#fff"/>
  <circle cx="14" cy="11" r="1" fill="#fff"/>
</svg>
